<svg class="mx-11" width="128" height="42" viewBox="0 0 128 42" fill="none" xmlns="http://www.w3.org/2000/svg"><path d="M0 0H27.7325V14H13.8663L0 0ZM0 14H13.8663L27.7325 28H0V14ZM0 28H13.8663V42L0 28Z" fill="#90A1B9"></path><path d="M43.3801 11.0446H54.5901V14.6412H47.6231V19.6392H54.5901V23.1564H47.6231V29.5559H43.3801V11.0446ZM56.8949 16.8094H60.9025V19.4804C61.1118 18.5625 61.5401 17.8579 62.1859 17.3647C62.8482 16.8529 63.5835 16.598 64.386 16.598C64.8054 16.598 65.1549 16.6339 65.4334 16.7037V20.4591C65.0337 20.4104 64.6315 20.3842 64.2287 20.3797C63.1286 20.3797 62.3001 20.7403 61.7405 21.4634C61.1829 22.1687 60.9025 23.2262 60.9025 24.6373V29.5559H56.8968V16.8094H56.8949ZM71.7597 29.8998C70.5379 29.8998 69.4721 29.6084 68.5642 29.0268C67.6735 28.4452 66.9655 27.6196 66.5214 26.6466C66.0501 25.625 65.8128 24.4688 65.8128 23.1826C65.8128 21.9131 66.059 20.7666 66.5474 19.7449C67.0055 18.7579 67.7325 17.9233 68.6429 17.3385C69.5672 16.7569 70.6241 16.4654 71.8124 16.4654C72.7025 16.4654 73.498 16.6601 74.1959 17.0477C74.8937 17.4365 75.4177 17.9655 75.7673 18.6342V16.8094H79.7482V29.5559H75.7673V27.7573C75.4177 28.392 74.8766 28.9115 74.1432 29.3176C73.4098 29.7102 72.5902 29.9101 71.7597 29.8998ZM72.9125 26.5409C73.8723 26.5409 74.6146 26.2238 75.1386 25.5891C75.6626 24.9543 75.9246 24.1517 75.9246 23.1826C75.9246 22.2308 75.6626 21.4372 75.1386 20.8024C74.6146 20.1677 73.8723 19.8506 72.9125 19.8506C72.0033 19.8506 71.2712 20.1587 70.7123 20.7762C70.1712 21.3936 69.9003 22.1949 69.9003 23.1826C69.9003 24.1703 70.1712 24.9806 70.7123 25.6153C71.2712 26.2328 72.0046 26.5409 72.9125 26.5409ZM82.551 16.8094H86.5586V18.6605C86.839 18.0072 87.2919 17.4781 87.92 17.0739C88.5671 16.6697 89.3176 16.4654 90.1728 16.4654C92.1636 16.4654 93.4825 17.2494 94.1277 18.8194C94.483 18.1077 95.0387 17.5191 95.7258 17.1271C96.4604 16.6806 97.3042 16.452 98.1613 16.4654C101.147 16.4654 102.64 18.1923 102.64 21.6486V29.5559H98.6066V22.389C98.6066 21.5262 98.4493 20.8915 98.1352 20.4854C97.8206 20.0805 97.3492 19.8769 96.7205 19.8769C96.0398 19.8769 95.5158 20.1151 95.1491 20.591C94.7824 21.0497 94.5991 21.851 94.5991 22.9975V29.5559H90.5655V22.3627C90.5655 21.4993 90.4088 20.8729 90.0941 20.4854C89.7985 20.0805 89.3347 19.8769 88.7073 19.8769C88.0082 19.8769 87.4753 20.1151 87.1086 20.591C86.7419 21.0497 86.5586 21.851 86.5586 22.9975V29.5559H82.5523V16.8094H82.551ZM117.695 22.5216C117.695 23.0673 117.659 23.6585 117.588 24.2933H108.265C108.301 25.1221 108.58 25.7556 109.104 26.1976C109.628 26.6376 110.336 26.8586 111.225 26.8586C112.465 26.8586 113.251 26.4788 113.582 25.721H117.511C117.318 26.9733 116.638 27.9859 115.468 28.7623C114.316 29.52 112.901 29.8998 111.225 29.8998C109.06 29.8998 107.358 29.3086 106.117 28.1275C104.896 26.9457 104.284 25.2983 104.284 23.1826C104.284 21.8074 104.563 20.6173 105.122 19.6123C105.662 18.6086 106.494 17.7964 107.505 17.2853C108.536 16.7396 109.732 16.4654 111.096 16.4654C112.387 16.4654 113.53 16.721 114.525 17.2328C115.538 17.7445 116.315 18.4581 116.856 19.3747C117.416 20.2926 117.695 21.3411 117.695 22.5216ZM113.738 21.7812C113.721 20.935 113.485 20.2906 113.031 19.8506C112.578 19.4106 111.922 19.1896 111.066 19.1896C110.211 19.1896 109.53 19.4272 109.024 19.9038C108.535 20.3624 108.282 20.9875 108.264 21.7812H113.738ZM119.462 16.8094H123.469V19.4804C123.678 18.5625 124.107 17.8579 124.752 17.3647C125.379 16.8664 126.155 16.5961 126.953 16.598C127.371 16.598 127.721 16.6339 128 16.7037V20.4591C127.6 20.4104 127.198 20.3842 126.795 20.3797C125.695 20.3797 124.867 20.7403 124.307 21.4634C123.748 22.1687 123.469 23.2262 123.469 24.6373V29.5559H119.462V16.8094Z" fill="#90A1B9"></path></svg>