<svg class="mx-11" width="143" height="32" viewBox="0 0 143 32" fill="none" xmlns="http://www.w3.org/2000/svg"><path d="M77.6225 10.3042H80.8137V19.1813C80.8137 23.6873 78.3304 26.2717 74.0042 26.2717C69.723 26.2717 67.2621 23.7322 67.2621 19.3049V10.3154H70.4534V19.2038C70.4534 21.8332 71.7456 23.2378 74.0492 23.2378C76.3527 23.2378 77.6225 21.8669 77.6225 19.3161V10.3042ZM59.6436 16.6418H52.4295V10.3042H49.2383V26.0357H52.4295V19.642H59.6323V26.0357H62.8236V10.3042H59.6323V16.6418H59.6436ZM139.56 10.3042V26.0133H142.706V10.3042H139.56ZM127.031 19.2599H132.84V16.3946H127.031V13.1696H135.458V10.3154H123.884V26.0245H135.762V23.1591H127.031V19.2599ZM114.513 21.114L110.94 10.293H108.333L104.759 21.114L101.287 10.3042H97.8937L103.377 26.0245H106.018L109.591 15.6979L113.165 26.0245H115.828L121.3 10.3042H117.985L114.513 21.114ZM92.2191 10.3941L99.0848 26.0245H95.7362L94.3204 22.7546H87.1176L87.0164 22.9793L85.6905 26.0245H82.4318L89.3649 10.3042H92.1517L92.2191 10.3941ZM92.9832 19.5409L90.7134 14.2708L88.4548 19.5409L88.2974 19.9004H93.1293L92.9832 19.5409Z" fill="#90A1B9"></path><path d="M17.8221 24.3614C17.867 24.3277 17.8783 24.2603 17.8558 24.2041C14.7573 17.5444 10.8919 11.2692 6.33804 5.50604C6.33804 5.50604 2.71979 8.9445 2.97824 12.3942C3.03878 13.1895 3.25553 13.9651 3.61608 14.6766C3.97664 15.3881 4.47394 16.0215 5.07952 16.5406C8.23707 19.6195 15.8781 23.5074 17.6535 24.3951C17.7097 24.4176 17.7771 24.4064 17.8221 24.3614ZM16.6422 26.9908C16.6197 26.9234 16.5523 26.8785 16.4737 26.8785L3.75358 27.3167C5.13571 29.7776 7.46173 31.6878 9.87764 31.1035C11.5519 30.6877 15.3275 28.0471 16.5748 27.1481C16.6759 27.0695 16.6422 27.0021 16.6422 26.9908ZM16.8332 25.8559C16.9007 25.7548 16.7883 25.6649 16.7883 25.6649C11.2036 21.8893 0.371296 16.0911 0.371296 16.0911C0.0122558 17.1916 -0.0881835 18.3601 0.0777841 19.5057C0.243752 20.6513 0.671656 21.7432 1.32824 22.6966C1.98482 23.6499 2.8524 24.439 3.86354 25.0026C4.87469 25.5661 6.00216 25.8889 7.15833 25.9458C7.34936 25.9795 14.7207 25.9458 16.6984 25.9346C16.7546 25.9233 16.7995 25.9009 16.8332 25.8559ZM17.676 0.0112368C17.1254 0.0561841 15.6309 0.404525 15.6309 0.404525C12.2598 1.26976 11.462 4.33741 11.462 4.33741C10.844 6.25891 11.4733 8.38266 11.4733 8.38266C12.597 13.3718 18.1255 21.5859 19.3166 23.3052C19.3952 23.395 19.4626 23.3613 19.4626 23.3613C19.5301 23.3389 19.5862 23.2827 19.5862 23.204C21.4291 4.86554 17.676 0.0112368 17.676 0.0112368ZM21.8898 23.3389C21.9572 23.3613 22.0359 23.3389 22.0696 23.2714C23.2944 21.5073 28.7892 13.3381 29.9129 8.37143C29.9129 8.37143 30.5197 5.96675 29.9354 4.32617C29.9354 4.32617 29.1038 1.21358 25.7328 0.393289C25.7328 0.393289 24.7664 0.146079 23.7326 0C23.7326 0 19.9571 4.8543 21.7999 23.1928C21.7887 23.2602 21.8336 23.3164 21.8898 23.3389ZM24.9013 26.8897C24.8713 26.8957 24.8429 26.9078 24.8178 26.9252C24.7927 26.9426 24.7714 26.9649 24.7552 26.9908C24.7439 27.0583 24.7552 27.1144 24.8001 27.1594C26.0137 28.0359 29.7106 30.6203 31.486 31.1147C31.486 31.1147 34.7784 32.2384 37.6326 27.3279L24.9013 26.8897ZM41.0261 16.0686C41.0261 16.0686 30.2163 21.8781 24.6203 25.6537C24.5642 25.6986 24.5304 25.766 24.5529 25.8334C24.5529 25.8334 24.6091 25.9346 24.6878 25.9346C26.6879 25.9346 34.2615 25.9458 34.4638 25.9121C35.2167 25.8559 35.9583 25.6874 36.655 25.4064C36.655 25.4064 39.3518 24.5524 40.7452 21.4848C40.7452 21.4848 41.9925 18.9902 41.0261 16.0686ZM23.5978 24.3614C23.6427 24.3951 23.7102 24.4064 23.7663 24.3727C25.5867 23.4625 33.1716 19.6082 36.3066 16.5406C36.3066 16.5406 38.2955 14.945 38.3967 12.3717C38.6214 8.80966 35.0369 5.50604 35.0369 5.50604C35.0369 5.50604 28.4071 13.5404 23.5416 24.1592C23.5338 24.1949 23.5348 24.232 23.5446 24.2672C23.5544 24.3025 23.5727 24.3348 23.5978 24.3614Z" fill="#90A1B9"></path></svg>