<svg class="mx-11" width="129" height="36" viewBox="0 0 129 36" fill="none" xmlns="http://www.w3.org/2000/svg"><path d="M6.63923 0.126226C3.99892 1.21347 1.09635 4.28507 0.179627 8.14059C-0.981336 13.0257 3.84997 15.0914 4.24624 14.4141C4.71264 13.6182 3.38052 13.3491 3.10632 10.8145C2.75193 7.54081 4.29898 3.88285 6.24599 2.27785C6.6079 1.97966 6.59069 2.39469 6.59069 3.16238C6.59069 4.53519 6.51358 16.859 6.51358 19.431C6.51358 22.9112 6.36746 24.0102 6.10503 25.0962C5.83914 26.1967 5.41166 26.9403 5.73558 27.2267C6.09748 27.5471 7.64265 26.785 8.53718 25.5568C9.60985 24.0837 9.98533 22.3147 10.0527 20.3936C10.1342 18.0777 10.1307 14.4029 10.1342 12.3068C10.1374 10.3843 10.1671 4.75506 10.0999 1.37095C10.0834 0.540892 7.74341 -0.329958 6.6391 0.125216M100.396 16.4134C100.311 18.2227 99.9039 19.6369 99.3987 20.6344C98.4205 22.5656 96.3908 23.1652 95.529 20.3891C95.0594 18.8759 95.0374 16.3486 95.3751 14.237C95.7188 12.0858 96.6785 10.4611 98.2677 10.6076C99.8351 10.7525 100.569 12.7394 100.396 16.4134V16.4134ZM73.9716 27.6387C73.9503 30.6449 73.4694 33.2808 72.438 34.0463C70.9752 35.1319 69.0091 34.3176 69.4162 32.1239C69.7764 30.1827 71.48 28.2002 73.9757 25.778C73.9757 25.778 73.9809 26.3304 73.9716 27.6387H73.9716ZM73.5721 16.3959C73.4826 18.0438 73.0483 19.6993 72.5746 20.6347C71.5966 22.5658 69.5521 23.1695 68.7049 20.3894C68.1256 18.4899 68.2643 16.0314 68.5509 14.4824C68.9229 12.4726 69.8244 10.6081 71.4435 10.6081C73.0177 10.6081 73.794 12.307 73.5721 16.396V16.3959ZM58.2642 16.3707C58.1683 18.116 57.8222 19.575 57.2668 20.6347C56.2619 22.5525 54.2739 23.1607 53.3971 20.3894C52.765 18.391 52.9802 15.6662 53.2431 14.1942C53.6333 12.0099 54.6104 10.4613 56.1357 10.6081C57.7025 10.7586 58.4642 12.7396 58.2642 16.3708V16.3707ZM128.416 18.4093C128.033 18.4093 127.859 18.7977 127.714 19.4514C127.212 21.7246 126.685 22.2379 126.005 22.2379C125.246 22.2379 124.563 21.1123 124.388 18.8591C124.25 17.0874 124.272 13.8256 124.449 10.5809C124.485 9.91429 124.298 9.25469 122.48 8.60512C121.698 8.32572 120.561 7.91433 119.995 9.25854C118.396 13.0562 117.77 16.0712 117.623 17.296C117.615 17.3594 117.536 17.3723 117.522 17.2242C117.428 16.2432 117.219 14.4606 117.193 10.7153C117.188 9.98457 117.03 9.36256 116.21 8.85332C115.678 8.52289 114.063 7.93847 113.481 8.63374C112.977 9.20236 112.394 10.7326 111.787 12.5465C111.294 14.0208 110.951 15.0181 110.951 15.0181C110.951 15.0181 110.958 11.0402 110.963 9.5313C110.966 8.96206 110.569 8.77237 110.449 8.73799C109.911 8.58418 108.849 8.32723 108.399 8.32723C107.843 8.32723 107.707 8.63289 107.707 9.07826C107.707 9.13657 107.619 14.3156 107.619 17.937C107.619 18.0943 107.619 18.2659 107.621 18.4482C107.313 20.1127 106.316 22.3721 105.232 22.3721C104.146 22.3721 103.634 21.4275 103.634 17.1102C103.634 14.5916 103.711 13.4965 103.749 11.6749C103.771 10.6257 103.813 9.81996 103.811 9.63712C103.803 9.07642 102.817 8.79381 102.358 8.68937C101.898 8.58405 101.497 8.54326 101.185 8.56077C100.742 8.58533 100.429 8.87093 100.429 9.26374C100.429 9.47435 100.432 9.87486 100.432 9.87486C99.8616 8.99375 98.9448 8.38049 98.3349 8.20278C96.6921 7.72282 94.9779 8.14809 93.6849 9.92805C92.6572 11.3423 92.0378 12.9441 91.7939 15.2455C91.6157 16.9279 91.6738 18.6341 91.9906 20.0769C91.6078 21.7051 90.8972 22.3721 90.119 22.3721C88.9893 22.3721 88.1702 20.5581 88.2654 17.4208C88.3281 15.3573 88.7478 13.9092 89.2066 11.8142C89.4022 10.9211 89.2433 10.4535 88.8447 10.0054C88.479 9.5944 87.7 9.38443 86.58 9.64268C85.7823 9.8268 84.6417 10.0248 83.5982 10.1769C83.5982 10.1769 83.6611 9.92975 83.7128 9.49401C83.9842 7.20889 81.4601 7.39429 80.6548 8.12417C80.174 8.55992 79.8468 9.07385 79.7226 9.9979C79.5257 11.4643 80.7414 12.1559 80.7414 12.1559C80.3425 13.9521 79.3648 16.2985 78.3554 17.995C77.8147 18.9039 77.4011 19.5774 76.8672 20.2933C76.8652 20.0267 76.8637 19.7602 76.8628 19.4948C76.8506 15.7185 76.9016 12.7465 76.9242 11.6752C76.9461 10.626 76.9889 9.84169 76.9865 9.65885C76.9805 9.24873 76.737 9.09387 76.2307 8.89777C75.783 8.72434 75.2536 8.60429 74.7045 8.56242C74.0114 8.50924 73.5939 8.87087 73.6047 9.2985C73.6068 9.37924 73.6068 9.87502 73.6068 9.87502C73.0369 8.9939 72.1202 8.38065 71.5102 8.20292C69.8674 7.72317 68.1532 8.14846 66.8602 9.9282C65.8328 11.3425 65.1599 13.327 64.9692 15.2281C64.7916 16.9999 64.8244 18.5056 65.0665 19.774C64.8053 21.0441 64.0543 22.3723 63.2051 22.3723C62.1194 22.3723 61.5017 21.4276 61.5017 17.1104C61.5017 14.5918 61.5785 13.4966 61.6163 11.6752C61.6383 10.626 61.6806 9.82012 61.6782 9.63749C61.6702 9.07678 60.6846 8.79418 60.2261 8.68952C59.7462 8.58037 59.3319 8.54021 59.0138 8.56327C58.5941 8.59403 58.299 8.96379 58.299 9.23955V9.87502C57.7291 8.9939 56.8124 8.38065 56.2024 8.20292C54.5596 7.72317 52.855 8.1553 51.5524 9.9282C50.703 11.0842 50.0153 12.3658 49.6614 15.2029C49.5592 16.0228 49.514 16.7905 49.5199 17.5081C49.1811 19.5459 47.6851 21.8946 46.4614 21.8946C45.7453 21.8946 45.0633 20.5283 45.0633 17.6162C45.0633 13.7372 45.3073 8.21425 45.3486 7.68196C45.3486 7.68196 46.8948 7.65611 47.1942 7.65268C47.9654 7.64435 48.6639 7.6623 49.6912 7.61061C50.2064 7.58476 50.7028 5.76572 50.171 5.54059C49.93 5.4387 48.2266 5.34942 47.5514 5.33532C46.9836 5.32266 45.4029 5.20758 45.4029 5.20758C45.4029 5.20758 45.5447 1.54172 45.5777 1.15447C45.6057 0.831715 45.1812 0.665537 44.9378 0.564703C44.3459 0.318425 43.8163 0.200509 43.1886 0.0732042C42.3214 -0.102796 41.9279 0.0693591 41.8511 0.789414C41.7354 1.88222 41.6754 5.08305 41.6754 5.08305C41.039 5.08305 38.8651 4.96066 38.2285 4.96066C37.637 4.96066 36.9987 7.46302 37.8164 7.49376C38.7572 7.52966 40.3968 7.56063 41.4837 7.59289C41.4837 7.59289 41.4353 13.2068 41.4353 14.94C41.4353 15.1244 41.4369 15.3019 41.4372 15.4742C40.839 18.5416 38.732 20.1985 38.732 20.1985C39.1845 18.1692 38.2602 16.6454 36.5953 15.3555C35.9819 14.8801 34.7709 13.9802 33.416 12.9941C33.416 12.9941 34.2008 12.2332 34.8967 10.7026C35.3898 9.61831 35.411 8.37748 34.2008 8.10387C32.201 7.65145 30.5521 9.09625 30.0603 10.6387C29.6793 11.8336 29.8825 12.7202 30.629 13.6413C30.6835 13.7086 30.7425 13.7774 30.8036 13.8466C30.3521 14.7025 29.732 15.8549 29.2068 16.7486C27.749 19.2298 26.6477 21.1924 25.8155 21.1924C25.1502 21.1924 25.1591 19.1998 25.1591 17.3343C25.1591 15.726 25.2798 13.3081 25.3762 10.8047C25.4081 9.97673 24.9873 9.50509 24.2819 9.07789C23.8533 8.81836 22.9385 8.30807 22.4087 8.30807C21.6157 8.30807 19.3279 8.41422 17.1661 14.5658C16.8937 15.3411 16.3585 16.7539 16.3585 16.7539L16.4046 9.35642C16.4046 9.18299 16.3107 9.0153 16.0957 8.90059C15.7314 8.70601 14.7584 8.30807 13.8933 8.30807C13.4811 8.30807 13.2754 8.49668 13.2754 8.87262L13.2 20.446C13.2 21.3254 13.2233 22.3513 13.3116 22.7999C13.3997 23.2492 13.5423 23.6146 13.719 23.8321C13.8954 24.0491 14.0995 24.2147 14.436 24.283C14.7491 24.3464 16.4638 24.563 16.553 23.9184C16.6597 23.1458 16.6638 22.3102 17.5642 19.1937C18.966 14.3417 20.7936 11.9743 21.6528 11.1336C21.803 10.9866 21.9745 10.9779 21.9663 11.2184C21.9296 12.2821 21.8006 14.9402 21.7138 17.1984C21.481 23.2417 22.5986 24.3618 24.1956 24.3618C25.4173 24.3618 27.1396 23.1675 28.9859 20.1444C30.1369 18.2605 31.2544 16.4132 32.0574 15.0818C32.6169 15.5914 33.2448 16.1399 33.8723 16.7257C35.3306 18.0873 35.8094 19.381 35.4917 20.6084C35.2487 21.5467 34.3337 22.5136 32.7053 21.5738C32.2306 21.2996 32.028 21.0877 31.5508 20.7786C31.2944 20.6126 30.9029 20.5629 30.6682 20.7369C30.0585 21.1891 29.7098 21.7643 29.5107 22.4765C29.317 23.1695 30.0224 23.5358 30.7537 23.8562C31.3834 24.1319 32.7368 24.3818 33.5998 24.4103C36.9627 24.5209 39.6567 22.8129 41.532 18.4072C41.8677 22.2121 43.2964 24.3652 45.7786 24.3652C47.4381 24.3652 49.102 22.255 49.8296 20.179C50.0385 21.0252 50.3477 21.7611 50.747 22.3834C52.6597 25.3646 56.3702 24.723 58.234 22.1914C58.8103 21.4092 58.898 21.1281 58.898 21.1281C59.1698 23.5185 61.1266 24.3537 62.247 24.3537C63.5018 24.3537 64.7974 23.7701 65.7054 21.7591C65.8118 21.9773 65.928 22.1857 66.0548 22.3833C67.9675 25.3646 71.678 24.7229 73.5418 22.1913C73.6298 22.0726 73.706 21.9649 73.7726 21.8682L73.8273 23.4383C73.8273 23.4383 72.7641 24.3979 72.1114 24.9865C69.2388 27.5792 67.0544 29.5463 66.8938 31.837C66.6875 34.7578 69.0955 35.8433 70.9172 35.9856C72.8518 36.1366 74.5085 35.0853 75.5268 33.6139C76.4225 32.3189 77.0087 29.5316 76.9657 26.7787C76.9486 25.6763 76.9203 24.2746 76.8982 22.7721C77.9078 21.6187 79.0454 20.1608 80.0928 18.4544C81.2343 16.5947 82.4576 14.0973 83.084 12.1537C83.084 12.1537 84.1468 12.1627 85.2811 12.0896C85.6439 12.0663 85.7482 12.1392 85.6811 12.4008C85.6001 12.717 84.248 17.8473 85.4819 21.2649C86.3266 23.6045 88.2306 24.3573 89.3594 24.3573C90.6809 24.3573 91.945 23.3755 92.6225 21.9177C92.7041 22.0802 92.7894 22.2375 92.8826 22.3827C94.7953 25.3639 98.4928 24.7184 100.37 22.1907C100.793 21.6204 101.034 21.1274 101.034 21.1274C101.436 23.6013 103.392 24.3656 104.512 24.3656C105.679 24.3656 106.786 23.895 107.685 21.8036C107.722 22.7245 107.782 23.4774 107.875 23.7148C107.932 23.86 108.263 24.0422 108.505 24.1302C109.572 24.5196 110.661 24.3355 111.063 24.2554C111.342 24.1998 111.56 23.9796 111.59 23.411C111.668 21.9179 111.62 19.4094 112.08 17.545C112.852 14.4162 113.573 13.2025 113.915 12.6016C114.106 12.265 114.322 12.2094 114.329 12.5657C114.346 13.2866 114.382 15.4037 114.681 18.248C114.901 20.3399 115.195 21.5764 115.42 21.9677C116.064 23.0867 116.859 23.1397 117.507 23.1397C117.918 23.1397 118.78 23.0278 118.703 22.3156C118.665 21.9685 118.731 19.8233 119.492 16.7408C119.99 14.7278 120.819 12.909 121.118 12.244C121.228 11.9988 121.279 12.1921 121.277 12.2298C121.214 13.6161 121.073 18.1504 121.647 20.6304C122.425 23.9899 124.677 24.3658 125.461 24.3658C127.136 24.3658 128.505 23.1126 128.967 19.815C129.078 19.0215 128.913 18.4087 128.42 18.4087" fill="#90A1B9"></path></svg>