<svg class="mx-11" width="131" height="28" viewBox="0 0 131 28" fill="none" xmlns="http://www.w3.org/2000/svg"><path d="M54.4798 5.59999V22.4H51.5696V9.21666H51.5308L46.3311 22.4H44.391L39.0749 9.21666H39.0361V22.4H36.3588V5.59999H40.5494L45.3611 18.0445H45.4387L50.5219 5.59999H54.4798ZM56.8856 6.88333C56.8856 6.41666 57.0408 6.02777 57.3901 5.71666C57.7393 5.40555 58.1273 5.24999 58.593 5.24999C59.0974 5.24999 59.5243 5.40555 59.8347 5.71666C60.1451 6.02777 60.3391 6.41666 60.3391 6.88333C60.3391 7.34999 60.1839 7.73888 59.8347 8.04999C59.4855 8.36111 59.0974 8.51666 58.593 8.51666C58.0885 8.51666 57.7005 8.36111 57.3901 8.04999C57.0797 7.69999 56.8856 7.31111 56.8856 6.88333ZM60.0287 10.3444V22.4H57.1961V10.3444H60.0287ZM68.6042 20.3389C69.0311 20.3389 69.4967 20.2611 70.0012 20.0278C70.5056 19.8333 70.9712 19.5611 71.3981 19.25V21.8944C70.9324 22.1666 70.428 22.3611 69.8459 22.4777C69.2639 22.5944 68.643 22.6722 67.9446 22.6722C66.1596 22.6722 64.7239 22.1278 63.6374 21C62.5121 19.8722 61.9689 18.4333 61.9689 16.7222C61.9689 14.7778 62.5509 13.1833 63.6762 11.9389C64.8015 10.6944 66.3925 10.0722 68.4878 10.0722C69.0311 10.0722 69.5743 10.15 70.0788 10.2667C70.622 10.3833 71.0489 10.5778 71.3593 10.7333V13.4555C70.9324 13.1444 70.4668 12.8722 70.04 12.7167C69.5743 12.5611 69.1087 12.4444 68.643 12.4444C67.5178 12.4444 66.6253 12.7944 65.9268 13.5333C65.2283 14.2722 64.9179 15.2444 64.9179 16.4889C64.9179 17.6945 65.2672 18.6667 65.9268 19.3278C66.5865 19.9889 67.4789 20.3389 68.6042 20.3389ZM79.4304 10.15C79.6632 10.15 79.8572 10.15 80.0512 10.1889C80.2452 10.2278 80.4005 10.2667 80.5169 10.3056V13.1833C80.3617 13.0667 80.1676 12.95 79.8572 12.8722C79.5468 12.7944 79.2364 12.7167 78.8095 12.7167C78.1111 12.7167 77.529 13.0278 77.0634 13.6111C76.5977 14.1944 76.3261 15.0889 76.3261 16.3333V22.4H73.4935V10.3444H76.3261V12.25H76.3649C76.6365 11.5889 77.0246 11.0833 77.529 10.6944C78.0723 10.3444 78.6931 10.15 79.4304 10.15ZM80.6721 16.5666C80.6721 14.5833 81.2541 12.9889 82.3406 11.8222C83.4659 10.6556 85.0181 10.0722 86.997 10.0722C88.8596 10.0722 90.3341 10.6167 91.3818 11.7444C92.4295 12.8722 92.9727 14.3889 92.9727 16.2944C92.9727 18.2389 92.3907 19.7945 91.3042 20.9611C90.1789 22.1278 88.6656 22.7111 86.7254 22.7111C84.8628 22.7111 83.3883 22.1667 82.3018 21.0778C81.2153 19.95 80.6721 18.4333 80.6721 16.5666ZM83.6211 16.45C83.6211 17.6944 83.8928 18.6667 84.4748 19.3278C85.0569 19.9889 85.8717 20.3389 86.9194 20.3389C87.9283 20.3389 88.7432 20.0278 89.2864 19.3278C89.8297 18.6667 90.1013 17.6944 90.1013 16.3722C90.1013 15.0889 89.8297 14.1167 89.2864 13.4167C88.7432 12.7556 87.9283 12.4056 86.9582 12.4056C85.9105 12.4056 85.1345 12.7555 84.5524 13.4555C83.8928 14.1944 83.6211 15.1666 83.6211 16.45ZM97.2023 13.5333C97.2023 13.9222 97.3187 14.2722 97.5903 14.5055C97.862 14.7389 98.4052 15.0111 99.2977 15.3611C100.423 15.8278 101.238 16.3333 101.665 16.8778C102.13 17.4611 102.363 18.1222 102.363 18.9389C102.363 20.0667 101.936 20.9611 101.044 21.6611C100.19 22.3611 98.9872 22.6722 97.5127 22.6722C97.0083 22.6722 96.465 22.5944 95.8442 22.4777C95.2233 22.3611 94.7189 22.2055 94.292 22.0111V19.2111C94.7965 19.5611 95.3785 19.8722 95.9606 20.0666C96.5426 20.2611 97.0859 20.3778 97.5903 20.3778C98.2112 20.3778 98.7156 20.3 98.9873 20.1056C99.2977 19.9111 99.4529 19.6389 99.4529 19.2111C99.4529 18.8222 99.2977 18.5111 98.9873 18.2C98.6768 17.9277 98.056 17.6167 97.2023 17.2667C96.1546 16.8389 95.4173 16.3333 94.9905 15.7889C94.5637 15.2444 94.3308 14.5444 94.3308 13.6889C94.3308 12.6 94.7577 11.7055 95.6114 11.0055C96.465 10.3055 97.5903 9.95555 98.9484 9.95555C99.3753 9.95555 99.8409 9.99444 100.345 10.1111C100.85 10.2278 101.315 10.3444 101.665 10.4611V13.2222C101.277 12.9889 100.85 12.7555 100.345 12.5611C99.8409 12.3666 99.3365 12.2889 98.8708 12.2889C98.3276 12.2889 97.9008 12.4056 97.6291 12.6C97.3575 12.8722 97.2023 13.1444 97.2023 13.5333ZM103.566 16.5666C103.566 14.5833 104.148 12.9889 105.235 11.8222C106.36 10.6556 107.912 10.0722 109.891 10.0722C111.754 10.0722 113.228 10.6167 114.276 11.7444C115.323 12.8722 115.867 14.3889 115.867 16.2944C115.867 18.2389 115.285 19.7945 114.198 20.9611C113.073 22.1278 111.56 22.7111 109.619 22.7111C107.757 22.7111 106.282 22.1667 105.196 21.0778C104.148 19.95 103.566 18.4333 103.566 16.5666ZM106.515 16.45C106.515 17.6944 106.787 18.6667 107.369 19.3278C107.951 19.9889 108.766 20.3389 109.813 20.3389C110.822 20.3389 111.637 20.0278 112.18 19.3278C112.724 18.6667 112.995 17.6944 112.995 16.3722C112.995 15.0889 112.724 14.1167 112.18 13.4167C111.637 12.7556 110.822 12.4056 109.852 12.4056C108.804 12.4056 108.028 12.7555 107.446 13.4555C106.826 14.1944 106.515 15.1666 106.515 16.45ZM125.296 12.6777H121.066V22.4H118.195V12.6777H116.177V10.3444H118.195V8.67222C118.195 7.42777 118.622 6.37777 119.437 5.5611C120.251 4.74444 121.299 4.35555 122.58 4.35555C122.929 4.35555 123.239 4.39443 123.511 4.39443C123.783 4.39443 124.015 4.47221 124.209 4.54999V6.99999C124.132 6.9611 123.938 6.88333 123.705 6.80555C123.472 6.72777 123.201 6.68888 122.89 6.68888C122.308 6.68888 121.842 6.88333 121.532 7.23333C121.222 7.58333 121.066 8.16666 121.066 8.86666V10.3056H125.296V7.58333L128.129 6.72777V10.3056H131V12.6389H128.129V18.2778C128.129 19.0167 128.284 19.5222 128.517 19.8333C128.788 20.1445 129.215 20.3 129.797 20.3C129.952 20.3 130.146 20.2611 130.379 20.1833C130.612 20.1056 130.806 20.0278 130.961 19.9111V22.2445C130.767 22.3611 130.496 22.4389 130.069 22.5167C129.642 22.5945 129.254 22.6333 128.827 22.6333C127.624 22.6333 126.732 22.3222 126.15 21.7C125.568 21.0777 125.257 20.1056 125.257 18.8222L125.296 12.6777Z" fill="#90A1B9"></path><path d="M13.2707 0H0V13.3H13.2707V0Z" fill="#90A1B9"></path><path d="M27.9383 0H14.6676V13.3H27.9383V0Z" fill="#90A1B9"></path><path d="M13.2707 14.7H0V28H13.2707V14.7Z" fill="#90A1B9"></path><path d="M27.9383 14.7H14.6676V28H27.9383V14.7Z" fill="#90A1B9"></path></svg>