<svg class="mx-11" width="131" height="32" viewBox="0 0 131 32" fill="none" xmlns="http://www.w3.org/2000/svg"><path d="M116.105 10.5118C116.836 10.5118 117.439 10.1314 117.52 9.63989L118.242 1.47037C118.242 0.662892 117.296 0 116.107 0C114.919 0 113.974 0.662889 113.974 1.47051L114.696 9.63989C114.775 10.1312 115.377 10.5118 116.107 10.5118H116.105ZM111.689 13.0635C112.056 12.4307 112.029 11.7194 111.642 11.4034L104.927 6.69304C104.229 6.28871 103.182 6.77538 102.588 7.80572C101.992 8.83475 102.098 9.98402 102.794 10.3885L110.229 13.8504C110.694 14.0227 111.328 13.6911 111.692 13.0587L111.689 13.0635ZM120.524 13.0591C120.89 13.6916 121.521 14.0233 121.986 13.8509L129.422 10.3889C130.122 9.9846 130.222 8.83519 129.631 7.80616C129.034 6.77684 127.986 6.28915 127.289 6.69347L120.574 11.4038C120.19 11.7194 120.161 12.4312 120.526 13.064L120.524 13.0591ZM116.105 20.7168C116.836 20.7168 117.439 21.094 117.52 21.5859L118.242 29.7543C118.242 30.5642 117.296 31.2257 116.107 31.2257C114.919 31.2257 113.974 30.5642 113.974 29.7543L114.696 21.5859C114.775 21.094 115.377 20.7168 116.107 20.7168H116.105ZM120.524 18.1645C120.89 17.5303 121.521 17.2015 121.986 17.3758L129.422 20.8354C130.122 21.2402 130.222 22.3906 129.631 23.4205C129.034 24.4465 127.986 24.9355 127.289 24.5317L120.574 19.8258C120.19 19.5077 120.161 18.7954 120.526 18.1632H120.523M111.689 18.1636C112.056 18.7954 112.029 19.5077 111.642 19.8264L104.927 24.5322C104.229 24.9359 103.182 24.4469 102.588 23.421C101.992 22.3911 102.098 21.2406 102.794 20.8359L110.229 17.3762C110.694 17.2019 111.328 17.5307 111.692 18.1651H111.689" fill="#90A1B9"></path><path d="M73.7477 19.8106C73.7477 20.0613 73.7254 20.3198 73.6567 20.5469C73.3719 21.4901 72.3954 22.2877 71.1737 22.2877C70.155 22.2877 69.3459 21.709 69.3459 20.4869C69.3459 18.6164 71.4047 18.0999 73.7483 18.1128L73.7477 19.8104V19.8106ZM77.4236 16.5509C77.4236 13.4666 76.1057 10.7527 71.6526 10.7527C69.3667 10.7527 67.5525 11.3947 66.5623 11.967L67.2876 14.4465C68.1925 13.8752 69.6349 13.4022 70.9999 13.4022C73.2587 13.3959 73.6286 14.6813 73.6286 15.504V15.6987C68.7049 15.6914 65.5924 17.3963 65.5924 20.8693C65.5924 22.9915 67.1777 24.9792 69.9333 24.9792C71.6265 24.9792 73.0447 24.3033 73.8934 23.2196H73.9772C73.9772 23.2196 74.5388 25.5724 77.6392 24.6722C77.4774 23.6938 77.4242 22.6493 77.4242 21.3933L77.4237 16.5509M0.707031 6.55234C0.707031 6.55234 3.92456 19.7364 4.43834 21.8761C5.03768 24.3736 6.11787 25.293 9.23074 24.6722L11.2397 16.4986C11.7491 14.4674 12.09 13.0192 12.4182 10.955H12.4754C12.7058 13.041 13.0327 14.4736 13.4519 16.5053C13.4519 16.5053 14.2693 20.2162 14.6886 22.1647C15.1084 24.1125 16.2768 25.3409 19.3263 24.6722L24.1134 6.55176H20.2495L18.6144 14.3865C18.1748 16.6661 17.7763 18.4494 17.4688 20.5344H17.4141C17.1347 18.4677 16.7789 16.7572 16.3325 14.5356L14.6315 6.55176H10.6049L8.78444 14.3343C8.2692 16.6999 7.78602 18.6093 7.47994 20.6249H7.42426C7.11001 18.7269 6.6917 16.3262 6.23899 14.0374C6.23899 14.0374 5.15822 8.47061 4.77809 6.55176L0.707031 6.55234ZM31.4224 19.8106C31.4224 20.0613 31.4001 20.3198 31.3304 20.5469C31.0462 21.4901 30.0691 22.2877 28.8474 22.2877C27.8285 22.2877 27.0206 21.709 27.0206 20.4869C27.0206 18.6164 29.0788 18.0999 31.4228 18.1128L31.4224 19.8104V19.8106ZM35.0979 16.5509C35.0979 13.4666 33.78 10.7527 29.3278 10.7527C27.0413 10.7527 25.2257 11.3947 24.236 11.967L24.9604 14.4465C25.8652 13.8752 27.3076 13.4022 28.673 13.4022C30.9334 13.3959 31.3033 14.6813 31.3033 15.504V15.6987C26.3776 15.6914 23.2666 17.3963 23.2666 20.8693C23.2666 22.9915 24.8509 24.9792 27.6045 24.9792C29.3001 24.9792 30.7174 24.3033 31.5671 23.2196H31.6499C31.6499 23.2196 32.2131 25.5724 35.3127 24.6722C35.1507 23.6938 35.0979 22.6493 35.0979 21.3933V16.5509ZM41.2321 20.8258V6.55234H37.5518V24.6728H41.2321V20.8258ZM89.3771 6.55234V19.9195C89.3771 21.7633 89.7247 23.0536 90.4658 23.8433C91.1153 24.5338 92.1824 24.9806 93.4621 24.9806C94.5506 24.9806 95.6207 24.7729 96.1258 24.5856L96.0782 21.7105C95.7025 21.8023 95.2711 21.8766 94.6805 21.8766C93.4264 21.8766 93.0071 21.0733 93.0071 19.4188V14.3043H96.2119V10.8368H93.0071V6.55234H89.3771ZM79.8777 11.0601V24.6728H83.6741V17.7028C83.6741 17.3261 83.6969 16.9978 83.7565 16.6976C84.0373 15.2368 85.1538 14.3043 86.7576 14.3043C87.1971 14.3043 87.5118 14.3521 87.8528 14.4005V10.8368C87.5666 10.7798 87.3725 10.7531 87.0166 10.7531C85.5998 10.7531 83.9879 11.6673 83.3115 13.6283H83.2089V11.0601H79.8777ZM43.809 11.0601V24.6728H47.5078V16.6903C47.5078 16.3157 47.5519 15.9195 47.6816 15.5761C47.9881 14.7724 48.7361 13.8312 49.9297 13.8312C51.4229 13.8312 52.1202 15.093 52.1202 16.914V24.6718H55.8161V16.592C55.8161 16.2347 55.8649 15.8038 55.9706 15.4887C56.2741 14.5739 57.0798 13.8301 58.1896 13.8301C59.7027 13.8301 60.4289 15.0698 60.4289 17.2132V24.6713H64.1273V16.6534C64.1273 12.4255 61.9804 10.7518 59.5565 10.7518C58.484 10.7518 57.6366 11.0204 56.8702 11.4901C56.2267 11.8865 55.6495 12.4482 55.1459 13.1866H55.0913C54.5068 11.7196 53.1316 10.7525 51.3396 10.7525C49.0374 10.7525 48.0027 11.9196 47.3751 12.9093H47.32V11.0596H43.809" fill="#90A1B9"></path></svg>
