<svg
						width="117"
						height="31"
						viewBox="0 0 117 31"
						fill="none"
						xmlns="http://www.w3.org/2000/svg"
					>
						<g clip-path="url(#a)">
							<mask
								id="b"
								mask-type="luminance"
								maskUnits="userSpaceOnUse"
								x="0"
								y="0"
								width="117"
								height="31"
							>
								<path d="M117 0H0v31h117z" fill="#fff" />
							</mask>
							<g mask="url(#b)" fill="#EAEAEA">
								<path d="M12.89.011H0V30.99zm9.07 0h12.873V30.99zm-4.535 11.418 8.204 19.56h-5.383l-2.452-6.227H11.79zm38.437 8.281 1.52 4.38c.05.11.126.16.26.16h2.923c.16 0 .184-.075.16-.236L54.686 7.163c-.026-.135-.05-.16-.185-.16h-3.628c-.1 0-.16.075-.16.185-.05.886-.125 1.156-.235 1.418l-5.382 15.383c-.026.186.033.262.184.262h2.612c.16 0 .235-.05.294-.211l1.436-4.33zm-5.408-2.86c.79-2.396 1.83-5.468 2.25-7.223h.026c.52 1.84 1.747 5.485 2.3 7.223zm18.032 7.662c1.57 0 3.242-.287 4.938-1.02.134-.051.16-.11.16-.237a18 18 0 0 1-.11-1.68V5.712c0-.1 0-.151-.126-.151h-2.847c-.108 0-.16.05-.16.185v5.376a9 9 0 0 0-1.124-.076c-4.594 0-7.415 3.046-7.415 6.852 0 4.413 2.897 6.615 6.684 6.615m1.856-2.936c-.47.152-.99.21-1.52.21-2.082 0-3.787-1.18-3.787-4.05 0-2.54 1.755-4.042 4.08-4.042.472 0 .883.05 1.227.186zm12.323-10.532c-3.922 0-6.349 3.02-6.349 6.75 0 3.334 1.932 6.718 6.29 6.718 3.687 0 6.273-2.726 6.273-6.802 0-3.594-2.191-6.666-6.214-6.666m-.16 2.65c2.218 0 3.158 1.915 3.158 4.1 0 2.701-1.385 4.043-2.998 4.043-1.99 0-3.166-1.68-3.166-4.101 0-2.49 1.252-4.042 3.007-4.042m9.317-8.135c-.11 0-.184.05-.184.185v17.957c0 .076.075.211.184.236a13.2 13.2 0 0 0 3.913.574c3.872 0 7.634-2.413 7.634-7.274 0-3.518-2.402-6.193-6.164-6.193-.865 0-1.67.135-2.376.37l-.034-5.644c0-.186-.05-.211-.235-.211zm8.331 12c0 2.91-1.983 4.277-4.123 4.277-.446 0-.84-.025-1.201-.135V14.04c.411-.16.906-.295 1.822-.295 2.066 0 3.502 1.316 3.502 3.814m13.84.946c1.276 0 2.326-.026 2.687-.11.134-.026.185-.076.21-.186.075-.287.109-.886.109-1.62 0-2.498-1.495-5.544-5.357-5.544-3.948 0-6.139 3.232-6.139 6.877 0 3.232 1.696 6.59 6.449 6.59 1.781 0 2.931-.286 3.921-.759.102-.05.152-.135.152-.287v-2.185c0-.127-.076-.152-.152-.101-.99.422-2.065.632-3.241.632-2.662 0-3.871-1.476-3.947-3.308zm-5.308-2.262c.21-1.283 1.016-2.675 2.822-2.675 1.99 0 2.511 1.68 2.511 2.439v.21c-.11.026-.446.026-1.436.026z" />
							</g>
						</g>
						<defs>
							<clipPath id="a">
								<path fill="#fff" d="M0 0h117v31H0z" />
							</clipPath>
						</defs>
					</svg>