<svg
						width="64"
						height="38"
						viewBox="0 0 64 38"
						fill="none"
						xmlns="http://www.w3.org/2000/svg"
					>
						<g clip-path="url(#clip0_5306_110)">
							<path
								d="M18.0973 13.769C18.0973 14.548 18.182 15.1796 18.3303 15.6427C18.4999 16.1059 18.7118 16.6112 19.0085 17.1586C19.1145 17.327 19.1569 17.4954 19.1569 17.6428C19.1569 17.8534 19.0297 18.0639 18.7542 18.2744L17.4191 19.1587C17.2284 19.285 17.0377 19.3482 16.8681 19.3482C16.6562 19.3482 16.4442 19.2429 16.2324 19.0534C15.9356 18.7376 15.6813 18.4008 15.4695 18.0639C15.2575 17.706 15.0456 17.306 14.8125 16.8217C13.1595 18.7586 11.0827 19.7271 8.58204 19.7271C6.80188 19.7271 5.38202 19.2218 4.3436 18.2112C3.30519 17.2007 2.77539 15.8533 2.77539 14.169C2.77539 12.3795 3.41116 10.9267 4.70387 9.83196C5.99659 8.73715 7.71313 8.18975 9.89594 8.18975C10.6164 8.18975 11.3582 8.25292 12.1423 8.35817C12.9264 8.46349 13.7317 8.63191 14.5794 8.82136V7.28447C14.5794 5.6844 14.2403 4.56856 13.5834 3.9159C12.9052 3.26324 11.7608 2.94744 10.1291 2.94744C9.38735 2.94744 8.62438 3.03165 7.84032 3.22113C7.05618 3.41062 6.29327 3.64221 5.55155 3.93695C5.21248 4.08433 4.95817 4.16854 4.80983 4.21065C4.66148 4.25276 4.55552 4.27381 4.47076 4.27381C4.17407 4.27381 4.02573 4.06328 4.02573 3.62115V2.58953C4.02573 2.25267 4.06811 2.00003 4.17407 1.85265C4.28003 1.70528 4.47076 1.5579 4.76744 1.41053C5.50916 1.03157 6.39923 0.715761 7.43766 0.46312C8.47603 0.189425 9.57805 0.0631032 10.7436 0.0631032C13.2655 0.0631032 15.1091 0.631549 16.2959 1.76844C17.4615 2.90533 18.0549 4.63172 18.0549 6.94763V13.769H18.0973ZM9.49329 16.9691C10.1926 16.9691 10.9131 16.8428 11.676 16.5901C12.439 16.3375 13.1171 15.8743 13.6893 15.2427C14.0284 14.8427 14.2827 14.4006 14.4098 13.8953C14.537 13.39 14.6217 12.7795 14.6217 12.0636V11.1794C14.0072 11.032 13.3502 10.9057 12.6721 10.8215C11.9939 10.7372 11.337 10.6952 10.68 10.6952C9.26016 10.6952 8.22173 10.9688 7.52243 11.5373C6.82306 12.1057 6.484 12.9058 6.484 13.9584C6.484 14.948 6.7383 15.6848 7.26813 16.1901C7.77672 16.7165 8.51844 16.9691 9.49329 16.9691ZM26.5105 19.2429C26.1291 19.2429 25.8747 19.1797 25.7052 19.0324C25.5356 18.906 25.3873 18.6112 25.2602 18.2112L20.28 1.93687C20.1529 1.5158 20.0893 1.2421 20.0893 1.09473C20.0893 0.757873 20.2588 0.568389 20.5979 0.568389H22.6747C23.0774 0.568389 23.3529 0.631549 23.5013 0.778922C23.6708 0.905245 23.7979 1.2 23.9251 1.60001L27.4853 15.5375L30.7913 1.60001C30.8973 1.17894 31.0244 0.905245 31.1939 0.778922C31.3634 0.652603 31.6602 0.568389 32.0416 0.568389H33.737C34.1396 0.568389 34.4151 0.631549 34.5847 0.778922C34.7542 0.905245 34.9025 1.2 34.9873 1.60001L38.3356 15.7059L42.0019 1.60001C42.129 1.17894 42.2774 0.905245 42.4257 0.778922C42.5952 0.652603 42.8708 0.568389 43.2522 0.568389H45.2231C45.5621 0.568389 45.7529 0.736817 45.7529 1.09473C45.7529 1.2 45.7317 1.30526 45.7105 1.43159C45.6893 1.5579 45.6469 1.72633 45.5621 1.95792L40.4549 18.2323C40.3277 18.6534 40.1794 18.9271 40.0098 19.0534C39.8403 19.1797 39.5648 19.264 39.2045 19.264H37.382C36.9794 19.264 36.7038 19.2008 36.5343 19.0534C36.3648 18.906 36.2164 18.6324 36.1317 18.2112L32.8469 4.63172L29.5834 18.1902C29.4774 18.6112 29.3502 18.885 29.1807 19.0324C29.0112 19.1797 28.7145 19.2429 28.333 19.2429H26.5105ZM53.7423 19.8113C52.6403 19.8113 51.5383 19.685 50.4787 19.4324C49.4191 19.1797 48.5926 18.906 48.0416 18.5902C47.7025 18.4008 47.4695 18.1902 47.3847 18.0007C47.2999 17.8112 47.2575 17.6007 47.2575 17.4112V16.3375C47.2575 15.8953 47.427 15.6848 47.7449 15.6848C47.8721 15.6848 47.9992 15.7059 48.1264 15.748C48.2535 15.7901 48.4442 15.8743 48.6562 15.9585C49.3767 16.2743 50.1608 16.527 50.9873 16.6954C51.835 16.8639 52.6615 16.9481 53.5091 16.9481C54.8442 16.9481 55.8827 16.7165 56.6032 16.2533C57.3238 15.7901 57.7052 15.1164 57.7052 14.2532C57.7052 13.6637 57.5145 13.1795 57.133 12.7795C56.7516 12.3795 56.031 12.0215 54.9926 11.6847L51.9198 10.7372C50.3727 10.253 49.2284 9.53719 48.5291 8.58977C47.8297 7.66345 47.4695 6.63181 47.4695 5.53702C47.4695 4.65278 47.6602 3.8738 48.0416 3.20008C48.4231 2.52637 48.9316 1.93687 49.5674 1.47369C50.2032 0.989462 50.9238 0.631549 51.7714 0.378906C52.6191 0.126264 53.5091 0.0209961 54.4416 0.0209961C54.9078 0.0209961 55.3952 0.0420497 55.8615 0.10521C56.3489 0.168371 56.7939 0.252585 57.239 0.3368C57.6628 0.442067 58.0655 0.547335 58.4469 0.673656C58.8284 0.799978 59.1251 0.926301 59.337 1.05262C59.6337 1.22105 59.8456 1.38947 59.9727 1.57896C60.0999 1.74739 60.1634 1.97898 60.1634 2.27373V3.26324C60.1634 3.70536 59.9939 3.93695 59.676 3.93695C59.5065 3.93695 59.231 3.85274 58.8708 3.68431C57.6628 3.13692 56.3065 2.86322 54.8019 2.86322C53.5939 2.86322 52.6403 3.05271 51.9834 3.45272C51.3264 3.85274 50.9873 4.46329 50.9873 5.32649C50.9873 5.91599 51.1992 6.42127 51.6231 6.82128C52.0469 7.22129 52.831 7.62131 53.9542 7.97926L56.9634 8.92668C58.4893 9.41091 59.5913 10.0846 60.2482 10.9478C60.9052 11.811 61.2231 12.8005 61.2231 13.8953C61.2231 14.8006 61.0323 15.6217 60.672 16.3375C60.2906 17.0533 59.782 17.6849 59.1251 18.1902C58.4681 18.7166 57.684 19.0955 56.7727 19.3692C55.8191 19.664 54.8231 19.8113 53.7423 19.8113Z"
								fill="#EAEAEA"
							/>
							<path
								d="M57.7474 30.0436C50.7753 35.1596 40.6454 37.8755 31.9355 37.8755C19.7289 37.8755 8.73018 33.3911 0.422907 25.9381C-0.234047 25.3486 0.359331 24.5486 1.14344 25.0118C10.1289 30.191 21.2123 33.3279 32.6772 33.3279C40.4123 33.3279 48.9103 31.7278 56.7302 28.4435C57.8957 27.9171 58.8918 29.2015 57.7474 30.0436ZM60.6507 26.7592C59.7607 25.6223 54.7593 26.2118 52.4918 26.4855C51.8136 26.5698 51.7077 25.9802 52.3222 25.5381C56.3064 22.759 62.8547 23.5591 63.6176 24.4855C64.3805 25.4328 63.4057 31.9384 59.6759 35.0543C59.1037 35.5386 58.5527 35.2859 58.807 34.6543C59.6547 32.57 61.5408 27.8751 60.6507 26.7592Z"
								fill="#EAEAEA"
							/>
						</g>
						<defs>
							<clipPath id="clip0_5306_110">
								<rect width="64" height="38" fill="white" />
							</clipPath>
						</defs>
					</svg>