<svg
						width="119"
						height="50"
						viewBox="0 0 119 50"
						fill="none"
						xmlns="http://www.w3.org/2000/svg"
					>
						<path
							d="M102.37 21.692c-1.989.455-7.241.708-7.241.708l-.646 2.058s2.601-.22 4.505-.034c0 0 .611-.05.68.675.033.742-.052 1.518-.052 1.518s-.05.456-.679.574c-.731.118-5.661.337-5.661.337l-.799 2.665s-.289.607.374.439c.612-.169 5.78-1.147 6.46-1.012.713.168 1.529 1.147 1.291 2.024-.272 1.063-5.439 4.335-8.567 4.116 0 0-1.649.1-3.025-2.109-1.326-2.108.459-6.072.459-6.072s-.8-1.856-.204-2.53c0 0 .34-.287 1.359-.372l1.275-2.597s-1.445.084-2.294-.961c-.782-1.013-.85-1.451-.238-1.721.646-.337 6.629-1.4 10.742-1.265 0 0 1.445-.169 2.72 2.31 0 0 .578 1.013-.442 1.249zm-15.502 9.986c-.51 1.23-1.921 2.53-3.621 1.737-1.734-.81-4.47-6.342-4.47-6.342s-1.02-2.058-1.225-1.99c0 0-.22-.405-.34 1.855-.17 2.243.034 6.612-.9 7.304-.85.674-1.87.387-2.449-.405-.476-.793-.68-2.7-.408-6.022.306-3.323 1.071-6.865 2.04-7.962 1.02-1.113 1.836-.303 2.142 0 0 0 1.31 1.181 3.52 4.673l.373.64s2.006 3.324 2.21 3.307c0 0 .17.168.306.034.204-.051.136-1.13.136-1.13s-.374-3.593-2.244-9.666c0 0-.272-.776-.085-1.518.17-.675.9-.337.9-.337s2.823 1.35 4.2 5.903c1.36 4.555.442 8.687-.068 9.919zM73.03 19.988c-.272.473-.39 1.13-1.563 1.316 0 0-11.39.793-11.95 1.586 0 0-.374.472.238.59.646.135 3.23.472 4.453.54 1.326 0 5.78.033 7.412 2.024 0 0 .935.944.901 3.087-.034 2.192-.425 2.968-1.292 3.761-.901.742-8.619 4.183-13.6-1.08 0 0-2.277-2.53.8-4.453 0 0 2.21-1.349 7.87.22 0 0 1.7.607 1.632 1.231-.102.675-1.41 1.35-3.315 1.316-1.836-.05-3.195-.928-2.923-.776.255.084-1.99-1.08-2.686-.287-.68.742-.51 1.18.17 1.636 1.7.979 8.38.624 10.369-1.585 0 0 .799-.894-.408-1.62-1.19-.674-4.658-1.096-6-1.147-1.276-.067-6.052 0-6.766-1.23 0 0-.68-.878.068-3.273.782-2.53 6.34-3.509 8.754-3.711 0 0 6.63-.27 7.87 1.08 0 0 .17.303-.034.758zm-18.8 14.827c-.799.59-2.499.337-2.992-.337-.476-.59-.646-2.919-.56-6.579.118-3.744.17-8.332 1.02-9.075.85-.725 1.36-.084 1.7.405.34.506.781 1.063.85 2.227.101 1.18.39 7.253.39 7.253s.374 5.533-.39 6.106zm1.7-19.735c-2.346.793-3.944.54-5.304-.05-.595 1.062-.952 1.382-1.394 1.45-.68.067-1.274-1.012-1.36-1.35-.135-.253-.458-.708-.067-1.737-1.326-1.18-1.428-2.766-1.19-3.829.306-1.248 2.55-5.937 9.349-6.494 0 0 3.332-.236 3.91 1.518h.102s3.23 0 3.161 2.868c0 2.867-3.57 6.443-7.207 7.674zm3.026-8.164c-2.142.337-5.44 3.171-7.02 5.516 2.43.438 6.68.27 8.584-3.543 0 0 .9-2.395-1.564-1.973m-9.4 1.855c-.68 1.097-.714 1.754-.392 2.193.8-1.18 2.21-3.036 4.335-4.487-1.632.169-3.009.844-3.944 2.294m57.914 25.926c-1.564 3.812-2.89 7.675-3.655 13.46 0 0-.17 1.13-1.105.76-.935-.338-2.465-1.856-2.805-3.998-.34-2.8.918-7.523 3.485-12.955-.748-1.18-1.275-2.935-.85-5.397 0 0 .68-4.555 5.27-8.67 0 0 .544-.456.85-.304.374.169.221 1.62-.085 2.361-.272.709-2.312 4.218-2.312 4.218s-1.275 2.395-.918 4.267c2.414-3.677 7.905-11.133 11.305-8.771 2.158 1.518 2.158 6.41.543 9.243-1.274 2.244-4.878 6.882-9.689 5.803zm7.106-11.453c-1.258 1.35-3.502 3.913-5.27 7.388 1.87-.203 3.689-1.232 4.25-1.754.901-.793 2.975-2.935 2.652-5.77 0 0-.204-1.483-1.632.136M38.421 36.687c-6.017 1.822-11.695.979-14.789.169-.085 1.248-.22 1.771-.425 1.974-.238.27-2.21 1.383-3.297-.203-.476-.759-.714-2.125-.85-3.373-6.97-3.138-10.2-7.76-10.301-7.928-.17-.169-1.751-1.805-.17-3.83 1.479-1.82 6.374-3.66 10.76-4.385.17-3.71.578-6.578 1.105-7.843.629-1.518 1.427-.169 2.142.843.578.76.934 4.015.968 6.612 2.856-.135 4.59.068 7.769.675 4.182.708 6.97 2.834 6.748 5.229-.204 2.361-2.38 3.34-3.23 3.407s-2.21-.556-2.21-.556c-.951-.439-.084-.844 1.02-1.316 1.225-.59.953-1.18.953-1.18-.442-1.35-5.865-2.244-11.253-2.244 0 2.951.118 7.843.203 10.694 3.774.708 6.596.556 6.596.556s13.769-.388 14.16-9.108c.425-8.737-13.77-17.104-24.223-19.735-10.438-2.716-16.353-.793-16.863-.54-.561.27-.051.371-.051.371s.561.084 1.58.422.205.843.205.843c-1.785.607-3.774.253-4.165-.556-.39-.793.255-1.519 1.02-2.581.714-1.097 1.53-1.063 1.53-1.063 12.919-4.47 28.694 3.542 28.694 3.542 14.755 7.388 17.27 16.075 16.999 19.449-.239 3.323-1.53 8.94-10.625 11.672zm-28.387-12.06c-1.462.675-.443 1.754-.443 1.754 2.754 2.918 6.12 4.757 9.35 5.904.374-5.06.34-6.865.34-9.412-4.998.337-7.888 1.147-9.247 1.754"
							fill="#EAEAEA"
						/>
					</svg>