<svg
						width="136"
						height="29"
						viewBox="0 0 136 29"
						fill="none"
						xmlns="http://www.w3.org/2000/svg"
					>
						<g clip-path="url(#clip0_5306_100)">
							<mask
								id="mask0_5306_100"
								mask-type="luminance"
								maskUnits="userSpaceOnUse"
								x="0"
								y="0"
								width="136"
								height="29"
							>
								<path d="M136 0H0V29H136V0Z" fill="white" />
							</mask>
							<g mask="url(#mask0_5306_100)">
								<path
									d="M48.0058 16.7031L47.1952 18.9961H47.1277C46.9926 18.479 46.7449 17.6922 46.3396 16.748L41.9939 5.84491H37.7383V23.2224H40.5529V12.4991C40.5529 11.8247 40.5529 11.0604 40.5304 10.1162C40.5078 9.64413 40.4628 9.28446 40.4403 9.01469H40.5078C40.6429 9.68911 40.8005 10.1837 40.9131 10.4984L46.137 23.1775H48.1184L53.2972 10.386C53.4098 10.0938 53.5224 9.50925 53.635 9.01469H53.7025C53.635 10.2961 53.59 11.4426 53.5674 12.1395V23.155H56.5621V5.79995H52.4641L48.0058 16.7031ZM59.3992 10.7007H62.3263V23.155H59.3992V10.7007ZM60.8853 5.44026C60.39 5.44026 59.9846 5.62011 59.6469 5.93483C59.3092 6.24956 59.129 6.65422 59.129 7.14878C59.129 7.62087 59.3092 8.02553 59.6469 8.34028C59.9846 8.65496 60.39 8.81237 60.8853 8.81237C61.3807 8.81237 61.8085 8.6325 62.1237 8.34028C62.4614 8.02553 62.6416 7.62087 62.6416 7.14878C62.6416 6.67669 62.4614 6.27204 62.1237 5.93483C61.831 5.62011 61.4032 5.44026 60.8853 5.44026ZM72.7068 10.5883C72.1662 10.4759 71.6032 10.4084 71.0626 10.4084C69.7345 10.4084 68.5187 10.7007 67.5051 11.2852C66.4919 11.8697 65.6813 12.679 65.1634 13.6906C64.623 14.7247 64.3529 15.9162 64.3529 17.2875C64.3529 18.479 64.623 19.5356 65.1409 20.5023C65.6588 21.4465 66.3793 22.2108 67.3476 22.7279C68.2705 23.2449 69.3517 23.5147 70.5675 23.5147C71.9636 23.5147 73.157 23.2224 74.1028 22.6829L74.1253 22.6604V19.9627L74.0124 20.0526C73.5847 20.3674 73.089 20.6372 72.5939 20.7945C72.0758 20.9744 71.6032 21.0643 71.1979 21.0643C70.0269 21.0643 69.1042 20.7271 68.4507 19.9852C67.7754 19.2659 67.4376 18.2767 67.4376 17.0403C67.4376 15.7589 67.7754 14.7473 68.4731 14.0054C69.1715 13.2635 70.0942 12.8813 71.2203 12.8813C72.1662 12.8813 73.1345 13.1961 74.0124 13.8255L74.1253 13.9154V11.0604L74.1028 11.0379C73.72 10.8805 73.2916 10.7007 72.7068 10.5883ZM82.3662 10.4984C81.6454 10.4984 80.9702 10.7232 80.3847 11.1953C79.889 11.5999 79.5517 12.1845 79.2586 12.8813H79.2362V10.7007H76.3094V23.155H79.2362V16.793C79.2362 15.7139 79.4612 14.8147 79.957 14.1627C80.452 13.4883 81.0824 13.1511 81.848 13.1511C82.1187 13.1511 82.3886 13.2185 82.7266 13.2635C83.0414 13.3534 83.2665 13.4433 83.4243 13.5558L83.5372 13.6457V10.7232L83.4692 10.7007C83.2665 10.5659 82.8612 10.4984 82.3662 10.4984ZM90.3372 10.431C88.2876 10.431 86.6441 11.038 85.4956 12.2294C84.3253 13.4209 83.7622 15.0619 83.7622 17.1302C83.7622 19.0635 84.3477 20.6372 85.4731 21.7837C86.5992 22.9077 88.1306 23.4922 90.0441 23.4922C92.048 23.4922 93.6467 22.8852 94.7952 21.6712C95.9662 20.4573 96.5292 18.8387 96.5292 16.8379C96.5292 14.8596 95.9886 13.286 94.885 12.1395C93.8269 10.993 92.2731 10.431 90.3372 10.431ZM92.6784 20.0077C92.1385 20.7046 91.2824 21.0418 90.2243 21.0418C89.1662 21.0418 88.3108 20.7046 87.7028 19.9627C87.0942 19.2659 86.8018 18.2542 86.8018 16.9728C86.8018 15.6465 87.1174 14.6348 87.7028 13.9154C88.3108 13.1961 89.1438 12.8364 90.2018 12.8364C91.2375 12.8364 92.048 13.1736 92.6335 13.8705C93.219 14.5674 93.5345 15.579 93.5345 16.9054C93.489 18.2542 93.2414 19.3108 92.6784 20.0077ZM103.059 15.8712C102.136 15.4891 101.55 15.1968 101.28 14.9496C101.055 14.7247 100.942 14.41 100.942 14.0054C100.942 13.6682 101.077 13.331 101.415 13.1061C101.753 12.8813 102.136 12.7689 102.699 12.7689C103.194 12.7689 103.712 12.8589 104.207 12.9938C104.703 13.1286 105.153 13.331 105.513 13.6007L105.626 13.6906V10.948L105.558 10.9255C105.22 10.7906 104.77 10.6558 104.23 10.5433C103.689 10.4534 103.194 10.4084 102.789 10.4084C101.393 10.4084 100.244 10.7457 99.3438 11.4875C98.4428 12.1845 98.015 13.1286 98.015 14.2302C98.015 14.8147 98.1055 15.3317 98.3081 15.7589C98.5108 16.186 98.8032 16.5906 99.2084 16.9279C99.6137 17.2426 100.199 17.6023 101.01 17.9395C101.685 18.2317 102.203 18.4566 102.519 18.6364C102.834 18.8162 103.036 19.0185 103.194 19.1759C103.307 19.3558 103.374 19.5805 103.374 19.8728C103.374 20.7046 102.744 21.1092 101.46 21.1092C100.965 21.1092 100.447 21.0193 99.8388 20.817C99.2309 20.6147 98.6678 20.3224 98.1952 19.9852L98.0824 19.8953V22.7503L98.1504 22.7728C98.5781 22.9752 99.0956 23.11 99.7266 23.2674C100.357 23.3798 100.92 23.4697 101.415 23.4697C102.924 23.4697 104.162 23.1325 105.04 22.3906C105.941 21.6712 106.414 20.7496 106.414 19.5581C106.414 18.7263 106.189 17.9845 105.693 17.4224C105.04 16.8829 104.23 16.3209 103.059 15.8712ZM114.137 10.431C112.088 10.431 110.444 11.038 109.296 12.2294C108.148 13.4209 107.562 15.0619 107.562 17.1302C107.562 19.0635 108.148 20.6372 109.273 21.7837C110.399 22.9077 111.931 23.4922 113.844 23.4922C115.848 23.4922 117.447 22.8852 118.595 21.6712C119.766 20.4573 120.329 18.8387 120.329 16.8379C120.329 14.8596 119.789 13.286 118.685 12.1395C117.627 10.993 116.073 10.431 114.137 10.431ZM116.456 20.0077C115.916 20.7046 115.06 21.0418 114.002 21.0418C112.921 21.0418 112.088 20.7046 111.48 19.9627C110.872 19.2659 110.579 18.2542 110.579 16.9728C110.579 15.6465 110.894 14.6348 111.48 13.9154C112.088 13.1961 112.921 12.8364 113.979 12.8364C114.993 12.8364 115.826 13.1736 116.411 13.8705C116.997 14.5674 117.312 15.579 117.312 16.9054C117.312 18.2542 117.019 19.3108 116.456 20.0077ZM135.978 13.1061V10.7007H133.028V7.0139L132.938 7.03636L130.146 7.86818L130.078 7.89064V10.7007H125.665V9.12705C125.665 8.40772 125.845 7.84566 126.161 7.48599C126.476 7.12632 126.949 6.94646 127.535 6.94646C127.94 6.94646 128.368 7.03636 128.84 7.23868L128.953 7.30612V4.76584L128.885 4.74337C128.48 4.60848 127.94 4.51855 127.241 4.51855C126.364 4.51855 125.598 4.72088 124.9 5.05809C124.202 5.44026 123.684 5.95732 123.302 6.65422C122.919 7.32865 122.716 8.09297 122.716 8.96971V10.7007H120.667V13.0837H122.716V23.155H125.665V13.1061H130.078V19.5131C130.078 22.1433 131.317 23.4697 133.794 23.4697C134.199 23.4697 134.627 23.4023 135.032 23.3348C135.46 23.2449 135.775 23.1325 135.956 23.0426L135.978 23.0201V20.6147L135.865 20.7046C135.685 20.817 135.528 20.9069 135.257 20.9744C135.032 21.0418 134.83 21.0643 134.672 21.0643C134.086 21.0643 133.681 20.9294 133.389 20.5922C133.119 20.2775 132.983 19.7604 132.983 18.9961V13.1061H135.978Z"
									fill="#EAEAEA"
								/>
								<path d="M0 0H13.8026V13.7806H0V0Z" fill="#EAEAEA" />
								<path
									d="M15.2441 0H29.0468V13.7806H15.2441V0Z"
									fill="#EAEAEA"
								/>
								<path
									d="M0 15.2192H13.8026V28.9998H0V15.2192Z"
									fill="#EAEAEA"
								/>
								<path
									d="M15.2441 15.2192H29.0468V28.9998H15.2441V15.2192Z"
									fill="#EAEAEA"
								/>
							</g>
						</g>
						<defs>
							<clipPath id="clip0_5306_100">
								<rect width="136" height="29" fill="white" />
							</clipPath>
						</defs>
					</svg>