<svg
						width="105"
						height="29"
						viewBox="0 0 105 29"
						fill="none"
						xmlns="http://www.w3.org/2000/svg"
					>
						<g clip-path="url(#a)">
							<mask
								id="b"
								mask-type="luminance"
								maskUnits="userSpaceOnUse"
								x="0"
								y="0"
								width="105"
								height="29"
							>
								<path d="M105 0H0v28.61h105z" fill="#fff" />
							</mask>
							<g mask="url(#b)">
								<path
									d="M14.438 26.766c-1.58.28-3.187.364-4.85.587L4.517 12.377v15.619c-1.58.167-3.02.39-4.517.614V0h4.212l5.764 16.233V0h4.462zm8.73-16.289c1.717 0 4.35-.084 5.93-.084v4.47c-1.968 0-4.268 0-5.93.085v6.65c2.604-.168 5.209-.392 7.841-.476v4.303l-12.276.978V0H31.01v4.47h-7.842zm24.33-6.007h-4.6v20.564c-1.497 0-2.993 0-4.434.056V4.47h-4.6V0h13.634zm7.205 5.7h6.069v4.47h-6.069v10.142h-4.351V0h12.387v4.47h-8.036zm15.242 10.7c2.521.057 5.07.252 7.537.392v4.415c-3.963-.252-7.926-.503-11.972-.587V0h4.435zm11.278 5.114c1.414.084 2.91.168 4.35.335V0h-4.35zM105 0l-5.625 13.607L105 28.61c-1.663-.223-3.326-.53-4.988-.81l-3.187-8.27-3.242 7.6c-1.608-.28-3.16-.364-4.766-.587l5.708-13.104L89.37 0h4.766l2.91 7.516L100.15 0z"
									fill="#EAEAEA"
								/>
							</g>
						</g>
						<defs>
							<clipPath id="a">
								<path fill="#fff" d="M0 0h105v29H0z" />
							</clipPath>
						</defs>
					</svg>